<?xml version="1.0" encoding="UTF-8" standalone="no"?>
<svg
   viewBox="0 0 16 16.02"
   version="1.1"
   id="svg2"
   sodipodi:docname="bluetooth-symbolic-dark.svg"
   inkscape:version="1.3 (1:1.3+202307231459+0e150ed6c4)"
   xmlns:inkscape="http://www.inkscape.org/namespaces/inkscape"
   xmlns:sodipodi="http://sodipodi.sourceforge.net/DTD/sodipodi-0.dtd"
   xmlns="http://www.w3.org/2000/svg"
   xmlns:svg="http://www.w3.org/2000/svg">
  <defs
     id="defs2" />
  <sodipodi:namedview
     id="namedview2"
     pagecolor="#ffffff"
     bordercolor="#666666"
     borderopacity="1.0"
     inkscape:showpageshadow="2"
     inkscape:pageopacity="0.0"
     inkscape:pagecheckerboard="0"
     inkscape:deskcolor="#d1d1d1"
     showgrid="false"
     inkscape:zoom="56.991259"
     inkscape:cx="7.9924537"
     inkscape:cy="8.0100002"
     inkscape:window-width="1916"
     inkscape:window-height="1158"
     inkscape:window-x="0"
     inkscape:window-y="0"
     inkscape:window-maximized="1"
     inkscape:current-layer="svg2" />
  <path
     d="M8.5.018c-3.047 0-5.5 2.676-5.5 6v4c0 3.324 2.453 6 5.5 6s5.5-2.676 5.5-6v-4c0-3.324-2.453-6-5.5-6zM8.46 2.08a.5.5 0 0 1 .362.147l3 3a.5.5 0 0 1-.04.744l-2.637 2.11 2.636 2.109a.5.5 0 0 1 .041.744l-3 3a.5.5 0 0 1-.853-.353V9.02l-2.188 1.75a.5.5 0 0 1-.625-.78l2.387-1.91-2.387-1.91a.5.5 0 1 1 .625-.78l2.188 1.75V2.58a.5.5 0 0 1 .492-.5zm.509 1.707V6.94l1.752-1.4zm0 5.434v3.152l1.752-1.752z"
     fill="#232323"
     id="path1"
     style="fill:#f4d7d7" />
  <path
     color="#bebebe"
     d="M0 0h16v16H0z"
     fill="gray"
     fill-opacity=".01"
     id="path2" />
</svg>
