<?xml version="1.0" encoding="UTF-8" standalone="no"?>
<!-- Created with Inkscape (http://www.inkscape.org/) -->

<svg
   xmlns:dc="http://purl.org/dc/elements/1.1/"
   xmlns:cc="http://creativecommons.org/ns#"
   xmlns:rdf="http://www.w3.org/1999/02/22-rdf-syntax-ns#"
   xmlns:svg="http://www.w3.org/2000/svg"
   xmlns="http://www.w3.org/2000/svg"
   xmlns:sodipodi="http://sodipodi.sourceforge.net/DTD/sodipodi-0.dtd"
   xmlns:inkscape="http://www.inkscape.org/namespaces/inkscape"
   id="svg7384"
   width="40"
   height="40"
   version="1.1"
   sodipodi:docname="input-touchpad-symbolic.svg"
   inkscape:version="0.92.4 (33fec40, 2019-01-16)">
  <defs
     id="defs37" />
  <sodipodi:namedview
     pagecolor="#ffffff"
     bordercolor="#666666"
     borderopacity="1"
     objecttolerance="10"
     gridtolerance="10"
     guidetolerance="10"
     inkscape:pageopacity="0"
     inkscape:pageshadow="2"
     inkscape:window-width="1910"
     inkscape:window-height="2082"
     id="namedview35"
     showgrid="false"
     inkscape:zoom="8.96875"
     inkscape:cx="6.7782251"
     inkscape:cy="25.042915"
     inkscape:window-x="1920"
     inkscape:window-y="32"
     inkscape:window-maximized="0"
     inkscape:current-layer="svg7384" />
  <metadata
     id="metadata90">
    <rdf:RDF>
      <cc:Work
         rdf:about="">
        <dc:format>image/svg+xml</dc:format>
        <dc:type
           rdf:resource="http://purl.org/dc/dcmitype/StillImage" />
        <dc:title>Gnome Symbolic Icon Theme</dc:title>
      </cc:Work>
    </rdf:RDF>
  </metadata>
  <title
     id="title9167">Gnome Symbolic Icon Theme</title>
  <g
     id="layer10"
     transform="matrix(2.5,0,0,2.5,-701.24687,-1119.9999)">
    <path
       id="rect5837"
       d="m 284.03,449 c -1.6692,0 -3.0312,1.3621 -3.0312,3.0312 v 7.9375 c 0,1.6692 1.3621,3.0312 3.0312,3.0312 h 8.9375 c 1.6692,0 3.0312,-1.3621 3.0312,-3.0312 v -7.9375 c 0,-1.6692 -1.3621,-3.0312 -3.0312,-3.0312 z m 0,2 h 8.9375 c 0.59578,0 1.0312,0.43547 1.0312,1.0312 V 458 h -11 v -5.9688 c 0,-0.59578 0.43547,-1.0312 1.0312,-1.0312 z m -1.0312,8 h 5 v 2 H 284.03 c -0.59578,0 -1.0312,-0.43547 -1.0312,-1.0312 v -0.96875 z m 6,0 h 5 v 0.96875 c 0,0.59578 -0.43547,1.0312 -1.0312,1.0312 h -3.9688 v -2 z"
       style="color:#bebebe;text-indent:0;text-transform:none;fill:#bebebe"
       inkscape:connector-curvature="0" />
    <rect
       id="rect5839-9"
       x="283"
       y="451"
       width="11"
       height="7"
       rx="0"
       ry="0"
       style="color:#bebebe;opacity:0.35;fill:#bebebe" />
  </g>
</svg>
