<?xml version="1.0" encoding="UTF-8" standalone="no"?>
<svg
   xmlns:dc="http://purl.org/dc/elements/1.1/"
   xmlns:cc="http://creativecommons.org/ns#"
   xmlns:rdf="http://www.w3.org/1999/02/22-rdf-syntax-ns#"
   xmlns:svg="http://www.w3.org/2000/svg"
   xmlns="http://www.w3.org/2000/svg"
   xmlns:sodipodi="http://sodipodi.sourceforge.net/DTD/sodipodi-0.dtd"
   xmlns:inkscape="http://www.inkscape.org/namespaces/inkscape"
   inkscape:version="1.0 (1.0+r73)"
   sodipodi:docname="plane-slash-solid.svg"
   id="svg983"
   version="1.1"
   viewBox="0 0 640 512"
   role="img"
   class="svg-inline--fa fa-plane-slash fa-w-20"
   data-icon="plane-slash"
   data-prefix="fas"
   focusable="false"
   aria-hidden="true">
  <metadata
     id="metadata989">
    <rdf:RDF>
      <cc:Work
         rdf:about="">
        <dc:format>image/svg+xml</dc:format>
        <dc:type
           rdf:resource="http://purl.org/dc/dcmitype/StillImage" />
        <dc:title></dc:title>
      </cc:Work>
    </rdf:RDF>
  </metadata>
  <defs
     id="defs987" />
  <sodipodi:namedview
     inkscape:current-layer="svg983"
     inkscape:window-maximized="0"
     inkscape:window-y="32"
     inkscape:window-x="0"
     inkscape:cy="256"
     inkscape:cx="169.75107"
     inkscape:zoom="1"
     showgrid="false"
     id="namedview985"
     inkscape:window-height="2082"
     inkscape:window-width="3830"
     inkscape:pageshadow="2"
     inkscape:pageopacity="1"
     guidetolerance="10"
     gridtolerance="10"
     objecttolerance="10"
     borderopacity="1"
     bordercolor="#666666"
     pagecolor="#3a3a3a" />
  <path
     style="fill:#bebebe;fill-opacity:1"
     id="path981"
     d="M32.48,147.88,64,256,32.48,364.13A16,16,0,0,0,48,384H88a16,16,0,0,0,12.8-6.41L144,320H246.85l-49,171.59A16,16,0,0,0,213.2,512h65.5a16,16,0,0,0,13.89-8.06l66.6-116.54L34.35,136.34A15.47,15.47,0,0,0,32.48,147.88ZM633.82,458.09,455.14,320H512c35.34,0,96-28.66,96-64s-60.66-64-96-64H397.7L292.61,8.06C290.06,3.61,283.84,0,278.71,0H213.2a16,16,0,0,0-15.38,20.39l36.94,129.29L45.46,3.38A16,16,0,0,0,23,6.19L3.37,31.45A16,16,0,0,0,6.18,53.91L594.54,508.63A16,16,0,0,0,617,505.81l19.64-25.26A16,16,0,0,0,633.82,458.09Z"
     fill="currentColor" />
</svg>
