<?xml version="1.0" encoding="UTF-8" standalone="no"?>
<svg
   viewBox="0 0 16 16"
   version="1.1"
   id="svg2"
   sodipodi:docname="system-shutdown-symbolic-dark.svg"
   inkscape:version="1.3 (1:1.3+202307231459+0e150ed6c4)"
   xmlns:inkscape="http://www.inkscape.org/namespaces/inkscape"
   xmlns:sodipodi="http://sodipodi.sourceforge.net/DTD/sodipodi-0.dtd"
   xmlns="http://www.w3.org/2000/svg"
   xmlns:svg="http://www.w3.org/2000/svg">
  <defs
     id="defs2" />
  <sodipodi:namedview
     id="namedview2"
     pagecolor="#ffffff"
     bordercolor="#666666"
     borderopacity="1.0"
     inkscape:showpageshadow="2"
     inkscape:pageopacity="0.0"
     inkscape:pagecheckerboard="0"
     inkscape:deskcolor="#d1d1d1"
     inkscape:zoom="14.75"
     inkscape:cx="7.9661017"
     inkscape:cy="7.9661017"
     inkscape:window-width="1916"
     inkscape:window-height="1158"
     inkscape:window-x="0"
     inkscape:window-y="0"
     inkscape:window-maximized="1"
     inkscape:current-layer="svg2" />
  <g
     transform="translate(-325 -21)"
     id="g2"
     style="fill:#f4d7d7">
    <path
       color="#bebebe"
       d="M333 22.03a1 1 0 0 0-1 1 1 1 0 0 0 0 .004v4.992a1 1 0 0 0 0 .004 1 1 0 0 0 1 1 1 1 0 0 0 1-1 1 1 0 0 0 0-.004v-4.992a1 1 0 0 0 0-.004 1 1 0 0 0-1-1z"
       fill="#232323"
       id="path1"
       style="fill:#f4d7d7" />
    <path
       color="#000"
       d="M188.16 451.78a1 1 0 0 0-.766.357 1 1 0 0 0-.084.116 5.997 5.997 0 0 0-1.091 5.322 6.008 6.008 0 0 0 5.81 4.398 6.006 6.006 0 0 0 5.768-4.453 5.999 5.999 0 0 0-1.117-5.279 1 1 0 0 0-.84-.461 1 1 0 0 0-1 1 1 1 0 0 0 .244.656 3.985 3.985 0 0 1 .781 3.569 3.991 3.991 0 0 1-3.846 2.968 3.992 3.992 0 0 1-3.875-2.931 3.987 3.987 0 0 1 .772-3.611l.008-.008a1 1 0 0 0 0-.002 1 1 0 0 0 .236-.641 1 1 0 0 0-1-1z"
       fill="#232323"
       style="isolation:auto;mix-blend-mode:normal;text-decoration-color:#000;text-decoration-line:none;text-decoration-style:solid;text-indent:0;text-transform:none;white-space:normal;fill:#f4d7d7"
       transform="translate(141 -426.97)"
       id="path2" />
  </g>
</svg>
