<?xml version="1.0" encoding="UTF-8" standalone="no"?>
<svg
   xmlns:dc="http://purl.org/dc/elements/1.1/"
   xmlns:cc="http://creativecommons.org/ns#"
   xmlns:rdf="http://www.w3.org/1999/02/22-rdf-syntax-ns#"
   xmlns:svg="http://www.w3.org/2000/svg"
   xmlns="http://www.w3.org/2000/svg"
   xmlns:sodipodi="http://sodipodi.sourceforge.net/DTD/sodipodi-0.dtd"
   xmlns:inkscape="http://www.inkscape.org/namespaces/inkscape"
   aria-hidden="true"
   focusable="false"
   data-prefix="fas"
   data-icon="toggle-off"
   class="svg-inline--fa fa-toggle-off fa-w-18"
   role="img"
   viewBox="0 0 576 512"
   version="1.1"
   id="svg909"
   sodipodi:docname="toggle-off-solid.svg"
   inkscape:version="0.92.3 (2405546, 2018-03-11)">
  <metadata
     id="metadata915">
    <rdf:RDF>
      <cc:Work
         rdf:about="">
        <dc:format>image/svg+xml</dc:format>
        <dc:type
           rdf:resource="http://purl.org/dc/dcmitype/StillImage" />
      </cc:Work>
    </rdf:RDF>
  </metadata>
  <defs
     id="defs913" />
  <sodipodi:namedview
     pagecolor="#ffffff"
     bordercolor="#666666"
     borderopacity="1"
     objecttolerance="10"
     gridtolerance="10"
     guidetolerance="10"
     inkscape:pageopacity="0"
     inkscape:pageshadow="2"
     inkscape:window-width="956"
     inkscape:window-height="275"
     id="namedview911"
     showgrid="false"
     inkscape:zoom="0.4609375"
     inkscape:cx="-74.305085"
     inkscape:cy="256"
     inkscape:window-x="2160"
     inkscape:window-y="904"
     inkscape:window-maximized="0"
     inkscape:current-layer="svg909" />
  <path
     fill="currentColor"
     d="M384 64H192C85.961 64 0 149.961 0 256s85.961 192 192 192h192c106.039 0 192-85.961 192-192S490.039 64 384 64zM64 256c0-70.741 57.249-128 128-128 70.741 0 128 57.249 128 128 0 70.741-57.249 128-128 128-70.741 0-128-57.249-128-128zm320 128h-48.905c65.217-72.858 65.236-183.12 0-256H384c70.741 0 128 57.249 128 128 0 70.74-57.249 128-128 128z"
     id="path907"
     style="fill:#bebebe;fill-opacity:1" />
</svg>
