<?xml version="1.0" encoding="UTF-8" standalone="no"?>
<svg
   height="16px"
   viewBox="0 0 16 16"
   width="16px"
   version="1.1"
   id="svg4"
   sodipodi:docname="video-joined-displays-symbolic-dark.svg"
   inkscape:version="1.2.2 (b0a8486541, 2022-12-01)"
   xmlns:inkscape="http://www.inkscape.org/namespaces/inkscape"
   xmlns:sodipodi="http://sodipodi.sourceforge.net/DTD/sodipodi-0.dtd"
   xmlns="http://www.w3.org/2000/svg"
   xmlns:svg="http://www.w3.org/2000/svg">
  <defs
     id="defs8" />
  <sodipodi:namedview
     id="namedview6"
     pagecolor="#ffffff"
     bordercolor="#000000"
     borderopacity="0.25"
     inkscape:showpageshadow="2"
     inkscape:pageopacity="0.0"
     inkscape:pagecheckerboard="0"
     inkscape:deskcolor="#d1d1d1"
     showgrid="false"
     inkscape:zoom="14.75"
     inkscape:cx="8.0677966"
     inkscape:cy="8"
     inkscape:window-width="738"
     inkscape:window-height="1158"
     inkscape:window-x="0"
     inkscape:window-y="0"
     inkscape:window-maximized="0"
     inkscape:current-layer="svg4" />
  <path
     d="m 9.5 2 c -1.21875 0 -2.246094 0.898438 -2.457031 2.0625 c -0.175781 -0.042969 -0.359375 -0.0625 -0.542969 -0.0625 h -4 c -1.367188 0 -2.5 1.132812 -2.5 2.5 v 3 c 0 1.367188 1.132812 2.5 2.5 2.5 h 4 c 0.5625 0 1.082031 -0.191406 1.5 -0.511719 c 0.417969 0.320313 0.9375 0.511719 1.5 0.511719 h 4 c 1.367188 0 2.5 -1.132812 2.5 -2.5 v -5 c 0 -1.367188 -1.132812 -2.5 -2.5 -2.5 z m 0 2 h 4 c 0.292969 0 0.5 0.207031 0.5 0.5 v 5 c 0 0.292969 -0.207031 0.5 -0.5 0.5 h -4 c -0.292969 0 -0.5 -0.207031 -0.5 -0.5 v -5 c 0 -0.292969 0.207031 -0.5 0.5 -0.5 z m -7 2 h 4 c 0.292969 0 0.5 0.207031 0.5 0.5 v 3 c 0 0.292969 -0.207031 0.5 -0.5 0.5 h -4 c -0.292969 0 -0.5 -0.207031 -0.5 -0.5 v -3 c 0 -0.292969 0.207031 -0.5 0.5 -0.5 z m 0.5 7 c -0.554688 0 -1 0.445312 -1 1 h 5 c 0 -0.554688 -0.445312 -1 -1 -1 z m 7 0 c -0.554688 0 -1 0.445312 -1 1 h 5 c 0 -0.554688 -0.445312 -1 -1 -1 z m 0 0"
     fill="#2e3434"
     id="path2"
     style="font-variation-settings:normal;opacity:1;vector-effect:none;fill:#f4d7d7;fill-opacity:1;stroke-width:1;stroke-linecap:butt;stroke-linejoin:miter;stroke-miterlimit:4;stroke-dasharray:none;stroke-dashoffset:0;stroke-opacity:1;-inkscape-stroke:none;stop-color:#000000;stop-opacity:1" />
</svg>
