<?xml version="1.0" encoding="UTF-8" standalone="no"?>
<svg
   viewBox="0 0 16 16"
   version="1.1"
   id="svg3"
   sodipodi:docname="x-office-presentation-symbolic-dark.svg"
   inkscape:version="1.3 (1:1.3+202307231459+0e150ed6c4)"
   xmlns:inkscape="http://www.inkscape.org/namespaces/inkscape"
   xmlns:sodipodi="http://sodipodi.sourceforge.net/DTD/sodipodi-0.dtd"
   xmlns="http://www.w3.org/2000/svg"
   xmlns:svg="http://www.w3.org/2000/svg">
  <defs
     id="defs3" />
  <sodipodi:namedview
     id="namedview3"
     pagecolor="#ffffff"
     bordercolor="#666666"
     borderopacity="1.0"
     inkscape:showpageshadow="2"
     inkscape:pageopacity="0.0"
     inkscape:pagecheckerboard="0"
     inkscape:deskcolor="#d1d1d1"
     inkscape:zoom="14.75"
     inkscape:cx="7.9661017"
     inkscape:cy="7.9661017"
     inkscape:window-width="1916"
     inkscape:window-height="1158"
     inkscape:window-x="0"
     inkscape:window-y="0"
     inkscape:window-maximized="1"
     inkscape:current-layer="svg3" />
  <path
     color="#bebebe"
     d="M0 0h16v16H0z"
     fill="gray"
     fill-opacity=".01"
     id="path1" />
  <path
     color="#000"
     d="M584.5 153a.499.499 0 1 0 0 1h.5v8c0 1 1 1 1 1h5v1.25l-2.72 1.844c-.26.125-.352.513-.188.75s.541.26.75.062l2.658-1.812 2.658 1.812c.209.198.587.174.75-.062.164-.237.071-.625-.187-.75L592 164.25V163h5s1.008 0 1-1v-8h.5a.499.499 0 1 0 0-1H585zm2.5 2h9v6h-1l-3.5-3.5-3.5 3.5h-1z"
     fill="#232323"
     style="text-decoration-line:none;text-indent:0;text-transform:none;fill:#f4d7d7"
     transform="translate(-584 -151.99)"
     id="path2" />
  <path
     d="M4 3.01v4l1.313-1.5 1.312 1.5 2.188-2.5L11 7.01v-4z"
     fill="#232323"
     opacity=".5"
     id="path3"
     style="fill:#4d4d4d" />
</svg>
